<svg width="134" height="42" viewBox="0 0 134 42" fill="none" xmlns="http://www.w3.org/2000/svg">
<g clip-path="url(#clip0_1742_1223)">
<path fill-rule="evenodd" clip-rule="evenodd" d="M122.642 15.9391C122.049 15.3567 121.354 14.901 120.581 14.5845C119.775 14.2553 118.925 14.0907 118.055 14.0907H101.827V3.12698C101.827 2.43067 101.55 1.77235 101.041 1.27227C100.526 0.778526 99.8299 0.5 99.1212 0.5C98.4126 0.5 97.7168 0.778526 97.2143 1.27227C96.7054 1.76602 96.4219 2.43067 96.4219 3.12698V35.1383C96.4219 35.9928 96.5959 36.8157 96.9309 37.6007C97.2594 38.3539 97.7297 39.0313 98.3224 39.6073C98.9151 40.1897 99.6109 40.6454 100.384 40.9619C101.183 41.2911 102.033 41.462 102.909 41.462H118.042C118.919 41.462 119.769 41.2975 120.568 40.9619C121.341 40.6391 122.037 40.1833 122.629 39.6073C123.222 39.0313 123.692 38.3539 124.021 37.6007C124.362 36.8221 124.53 35.9928 124.53 35.1383V20.4081C124.53 19.5599 124.356 18.7307 124.021 17.9457C123.692 17.1924 123.222 16.5151 122.629 15.9391H122.642ZM119.15 35.1383C119.15 35.727 118.654 36.208 118.049 36.208H102.916C102.31 36.208 101.814 35.727 101.814 35.1383V19.332H118.042C118.648 19.332 119.144 19.8131 119.144 20.4018V35.1319L119.15 35.1383Z" fill="#1C1E1A"/>
<path d="M129.774 0.5H132.834C133.478 0.5 134 1.0064 134 1.63309V4.61456C134 5.24123 133.478 5.74765 132.834 5.74765H129.774C129.13 5.74765 128.608 5.24123 128.608 4.61456V1.63309C128.608 1.0064 129.13 0.5 129.774 0.5Z" fill="#1C1E1A"/>
<path d="M129.355 14.8504C129.864 14.3567 130.54 14.0845 131.262 14.0845V14.0908C131.977 14.0908 132.673 14.3693 133.169 14.8567C133.671 15.3442 133.961 16.0215 133.961 16.7115V38.8351C133.961 39.5314 133.678 40.1961 133.169 40.6898C132.666 41.1773 131.984 41.4558 131.262 41.4558C130.54 41.4558 129.864 41.1836 129.355 40.6898C128.84 40.1961 128.563 39.5378 128.563 38.8351V16.7051C128.563 16.0152 128.853 15.3378 129.355 14.8504Z" fill="#1C1E1A"/>
<path fill-rule="evenodd" clip-rule="evenodd" d="M88.44 14.5908C89.2131 14.9073 89.9088 15.3631 90.5015 15.9454C91.0942 16.5215 91.5645 17.1988 91.8931 17.9521C92.2281 18.737 92.402 19.5662 92.402 20.4145V35.1446C92.402 35.9991 92.2281 36.8284 91.8931 37.607C91.5645 38.3603 91.0942 39.0376 90.5015 39.6136C89.9088 40.1897 89.2131 40.6455 88.44 40.9683C87.6411 41.3038 86.7907 41.4684 85.9146 41.4684H70.7816C69.9055 41.4684 69.0551 41.2975 68.2563 40.9683C67.4832 40.6518 66.7874 40.196 66.1947 39.6136C65.602 39.0376 65.1317 38.3603 64.8032 37.607C64.4682 36.8221 64.2942 35.9991 64.2942 35.1446V3.13333C64.2942 2.43702 64.5777 1.77236 65.0867 1.27862C65.5891 0.784874 66.2849 0.506348 66.9936 0.506348C67.7022 0.506348 68.398 0.791191 68.9005 1.27862C69.4094 1.77868 69.6864 2.43702 69.6864 3.13333V14.097H85.9146C86.7843 14.097 87.6347 14.2616 88.44 14.5908ZM85.9082 36.2144C86.5137 36.2144 87.0098 35.7333 87.0098 35.1446L87.0034 35.1383V20.4081C87.0034 19.8194 86.5073 19.3384 85.9017 19.3384H69.6736V35.1446C69.6736 35.7333 70.1696 36.2144 70.7752 36.2144H85.9082Z" fill="#1C1E1A"/>
<path d="M57.5554 14.1099C56.8363 14.1115 56.1624 14.3836 55.655 14.8758C55.1525 15.3633 54.8626 16.0406 54.8626 16.7306V35.1575C54.8626 35.7461 54.3665 36.2272 53.761 36.2272H38.6344C38.0289 36.2272 37.5328 35.7461 37.5328 35.1575V16.7306C37.5328 16.0279 37.2558 15.3696 36.7404 14.8758C36.2314 14.3821 35.555 14.1099 34.8335 14.1099C34.1119 14.1099 33.4355 14.3821 32.9265 14.8758C32.424 15.3633 32.1406 16.0406 32.1406 16.7306V35.1575C32.1406 36.012 32.3145 36.8349 32.6495 37.6199C32.9781 38.3731 33.4419 39.0441 34.0411 39.6265C34.6338 40.2025 35.3295 40.6583 36.1026 40.9811C36.9079 41.3103 37.7583 41.4812 38.6344 41.4812H53.761C54.6371 41.4812 55.4875 41.3103 56.2863 40.9811C57.0594 40.6646 57.7552 40.2089 58.3479 39.6265C58.9406 39.0441 59.4109 38.3731 59.7394 37.6199C60.0809 36.8413 60.2484 36.012 60.2484 35.1575V16.7306C60.2484 16.0406 59.9585 15.3633 59.4559 14.8758C58.955 14.3899 58.2682 14.1115 57.5554 14.1099Z" fill="#1C1E1A"/>
<path d="M25.4214 19.3575H6.49386C5.88828 19.3575 5.39221 19.8386 5.39221 20.4273V35.1828C5.39221 35.7715 5.88828 36.2526 6.49386 36.2526H25.4214C26.13 36.2526 26.8258 36.5311 27.3283 37.0185C27.8372 37.5122 28.1207 38.1706 28.1207 38.8732C28.1207 39.5759 27.8372 40.2342 27.3283 40.7279C26.8258 41.2217 26.13 41.5002 25.4214 41.5002H6.49386C5.61767 41.5002 4.76732 41.3293 3.96844 41.0001C3.18895 40.6836 2.49962 40.2279 1.90694 39.6455C1.31422 39.0694 0.843941 38.3921 0.515377 37.6388C0.173955 36.8539 0 36.031 0 35.1764V20.44C0 19.5854 0.173955 18.7625 0.515377 17.9776C0.843941 17.2243 1.31422 16.547 1.90694 15.9709C2.49962 15.3949 3.1954 14.9328 3.96844 14.6163C4.76732 14.2808 5.61767 14.1162 6.49386 14.1162H25.4214C26.1429 14.1162 26.8193 14.3884 27.3283 14.8822C27.8372 15.3759 28.1207 16.0343 28.1207 16.7369C28.1207 17.4395 27.8372 18.0978 27.3283 18.5916C26.8258 19.079 26.13 19.3575 25.4214 19.3575Z" fill="#1C1E1A"/>
</g>
<defs>
<clipPath id="clip0_1742_1223">
<rect width="134" height="42" fill="white"/>
</clipPath>
</defs>
</svg>
